<svg xmlns="http://www.w3.org/2000/svg" viewBox="0 0 16 16" fill="none"><g clip-path="url(#clip0_357_238)"><path d="M3.6529 0C3.6529 0 7.99319 5.17926 8.67324 9.12889C9.58301 14.4059 8.22289 16 8.22289 16L3.38692 11.1793C3.40463 9.99405 3.21552 8.81459 2.82776 7.69185C2.19909 5.96148 0.666687 4.40593 0.666687 4.40593C0.666687 4.40593 2.70082 5.45778 3.801 6.57185C4.61479 7.48112 5.36219 8.44548 6.03764 9.45778C6.03764 9.45778 6.49101 8.30519 5.80189 5.4963C5.25784 3.26815 3.6529 0 3.6529 0Z" fill="#B3B4D0"/><path d="M10.4529 12.0771C10.4687 12.9256 10.4813 13.2269 10.4782 13.6296L12.9551 11.1701C12.9377 9.94015 13.1361 8.71632 13.542 7.55154C14.1983 5.76223 15.7981 4.14816 15.7981 4.14816C15.7981 4.14816 13.5168 5.12583 12.466 6.36481C12.0904 6.78285 11.7594 7.23714 11.4784 7.72063C10.7634 9.06471 10.4106 10.5637 10.4529 12.0771Z" fill="#6B6889"/><path d="M10.8794 5.13164C11.3577 2.81858 12.8267 0 12.8267 0C12.8267 0 10.1912 3.05665 8.66669 6.24849C9.3967 7.23091 9.9466 8.32405 10.293 9.48148C10.293 9.48148 10.4905 7.01559 10.8794 5.13164Z" fill="#6B6889"/></g><defs><clipPath id="clip0_357_238"><rect width="16" height="16" fill="white"/></clipPath></defs></svg>