<svg xmlns="http://www.w3.org/2000/svg" viewBox="0 0 16 16" fill="none"><g clip-path="url(#clip0_357_253)"><path d="M8.47673 6.10931L9.83055 13.2098L7.97906 14.6737L6.12756 13.2098L7.48125 6.11L7.98218 6.61847L8.47673 6.10931Z" fill="#B3B4D0"/><path d="M6.1276 1.32001H9.83059L10.4478 2.27373L7.98543 5.1349L5.51044 2.27373L6.1276 1.32001Z" fill="#B3B4D0"/><path d="M0 3.86328H4.96745L6.3568 5.26208L5.43105 8.75906L3.09492 7.67817L4.28957 5.83431C3.34514 5.83431 2.75799 5.81312 2.52813 5.77073C2.18333 5.70715 1.75715 5.50214 1.08737 4.969C0.640855 4.61358 0.278398 4.24501 0 3.86328Z" fill="#6B6889"/><path d="M16 3.89154C15.7216 4.27327 15.3591 4.64184 14.9126 4.99726C14.2428 5.5304 13.8167 5.73541 13.4719 5.79899C13.242 5.84137 12.6549 5.86257 11.7104 5.86257L12.9051 7.70643L10.5689 8.78732L9.64319 5.29033L11.0325 3.89154H16Z" fill="#6B6889"/></g><defs><clipPath id="clip0_357_253"><rect width="16" height="16" fill="white"/></clipPath></defs></svg>